PathFileType	4	(X/Y/Z)	/Users/itak/Documents/Research/Walk-IL/dataset/trc/00561_00009.trc
DataRate	CameraRate	NumFrames	NumMarkers	Units	OrigDataRate	OrigDataStartFrame	OrigNumFrames
100.000000	100.000000	4	53	mm	100.000000	105	420
Frame#	Time	RPSI			LPSI			L3			STRN			T10			C7			CLAV			RBAK			LBAK			LSHO			LUPA			LAEL			LAOL			LWTS			LWPS			LFRA			LHPS			LHTS			RSHO			RUPA			RAEL			RAOL			RWTS			RWPS			RFRA			RIFD			RHTS			RHPS			RBHD			LFHD			RFHD			LBHD			LHIP			RHIP			RASI			LASI			LKNE			LTHI			LANK			LTIP			LTOE			LMT1			LMT5			LHEE			RKNE			RTHI			RANK			RTIP			RTOE			RMT1			RMT5			RHEE			LIFD			
		X1	Y1	Z1	X2	Y2	Z2	X3	Y3	Z3	X4	Y4	Z4	X5	Y5	Z5	X6	Y6	Z6	X7	Y7	Z7	X8	Y8	Z8	X9	Y9	Z9	X10	Y10	Z10	X11	Y11	Z11	X12	Y12	Z12	X13	Y13	Z13	X14	Y14	Z14	X15	Y15	Z15	X16	Y16	Z16	X17	Y17	Z17	X18	Y18	Z18	X19	Y19	Z19	X20	Y20	Z20	X21	Y21	Z21	X22	Y22	Z22	X23	Y23	Z23	X24	Y24	Z24	X25	Y25	Z25	X26	Y26	Z26	X27	Y27	Z27	X28	Y28	Z28	X29	Y29	Z29	X30	Y30	Z30	X31	Y31	Z31	X32	Y32	Z32	X33	Y33	Z33	X34	Y34	Z34	X35	Y35	Z35	X36	Y36	Z36	X37	Y37	Z37	X38	Y38	Z38	X39	Y39	Z39	X40	Y40	Z40	X41	Y41	Z41	X42	Y42	Z42	X43	Y43	Z43	X44	Y44	Z44	X45	Y45	Z45	X46	Y46	Z46	X47	Y47	Z47	X48	Y48	Z48	X49	Y49	Z49	X50	Y50	Z50	X51	Y51	Z51	X52	Y52	Z52	X53	Y53	Z53	

106	1.05	-1610.026611328125	1015.698547363281	-440.332763671875	-1560.496215820312	1018.670471191406	-564.8458862304688	-1578.499877929688	1108.220825195312	-504.2788696289062	-1357.318237304688	1293.4423828125	-436.9377746582031	-1589.229614257812	1235.157836914062	-508.3446350097656	-1542.431274414062	1507.330200195312	-479.1094970703125	-1373.444946289062	1404.725463867188	-441.2833557128906	-1637.034301757812	1384.361083984375	-418.0726013183594	-1550.921875	1456.393920898438	-577.0429077148438	-1434.057983398438	1481.525390625	-627.56494140625	-1421.896484375	1356.840942382812	-708.9420776367188	-1392.629516601562	1135.142578125	-726.007080078125	-1490.361206054688	1125.588012695312	-707.5840454101562	-1322.720336914062	895.9512939453125	-641.0973510742188	-1333.183959960938	871.2993774414062	-724.7372436523438	-1366.809814453125	1048.595336914062	-723.1282348632812	-1324.360107421875	812.0630493164062	-714.474853515625	-1294.633178710938	819.7284545898438	-653.1243896484375	-1529.9560546875	1469.876586914062	-314.46484375	-1568.127685546875	1406.480224609375	-255.1614227294922	-1588.833862304688	1118.0830078125	-211.5025329589844	-1636.480346679688	1101.299926757812	-248.7863159179688	-1451.407470703125	896.4004516601562	-224.9352264404297	-1509.414794921875	876.1116943359375	-168.756591796875	-1580.950317382812	1061.635131835938	-202.8622741699219	-1443.477416992188	725.1725463867188	-219.6206207275391	-1426.088623046875	806.2817993164062	-202.6984558105469	-1491.10009765625	803.0026245117188	-164.2031555175781	-1476.406494140625	1686.673095703125	-392.6134338378906	-1286.363159179688	1697.44091796875	-475.5924377441406	-1344.912719726562	1696.210815429688	-343.8980712890625	-1402.3046875	1685.917114257812	-540.632568359375	-1396.995239257812	937.552001953125	-644.2656860351562	-1538.984008789062	941.2377319335938	-283.3368835449219	-1436.158081054688	971.3111572265625	-309.6213073730469	-1337.632568359375	964.261962890625	-569.837158203125	-1397.596435546875	493.1933898925781	-576.9030151367188	-1382.092407226562	657.7811889648438	-612.98486328125	-1491.420166015625	28.1827392578125	-597.4388427734375	-1465.455200195312	248.6684112548828	-602.4612426757812	-1310.865356445312	35.93128204345703	-474.598388671875	-1392.186279296875	38.40602493286133	-463.3078918457031	-1370.305419921875	32.58605194091797	-569.3060302734375	-1574.912841796875	26.43050956726074	-568.7561645507812	-1490.7724609375	497.0293579101562	-321.31103515625	-1499.89208984375	786.1921997070312	-272.6031188964844	-1580.883666992188	29.86552238464355	-370.2768249511719	-1490.7470703125	352.9886779785156	-335.8571472167969	-1359.084228515625	39.91213607788086	-331.3074340820312	-1402.498291015625	38.52239990234375	-391.9022521972656	-1461.26123046875	35.87091064453125	-304.8881530761719	-1610.424438476562	18.41056442260742	-442.2544250488281	-1316.21875	726.7276611328125	-644.223388671875	
107	1.06	-1610.201782226562	1015.527465820312	-440.6111145019531	-1560.49853515625	1018.51953125	-565.0528564453125	-1578.514770507812	1108.183227539062	-504.494140625	-1357.076904296875	1293.32666015625	-437.0346374511719	-1589.102905273438	1235.139038085938	-508.4931030273438	-1542.074340820312	1507.276733398438	-479.1744689941406	-1373.185546875	1404.572387695312	-441.3934020996094	-1636.767944335938	1384.338623046875	-418.108154296875	-1550.59765625	1456.360107421875	-577.1190185546875	-1433.714233398438	1481.437744140625	-627.64697265625	-1421.760131835938	1356.813598632812	-709.0545043945312	-1392.527709960938	1135.101806640625	-726.1293334960938	-1490.319091796875	1125.578002929688	-707.6593017578125	-1322.693969726562	895.833251953125	-641.2535400390625	-1333.177490234375	871.1566772460938	-724.8465576171875	-1366.763671875	1048.509521484375	-723.21435546875	-1324.425048828125	811.9213256835938	-714.5243530273438	-1294.592041015625	819.6586303710938	-653.1426391601562	-1529.636108398438	1469.819458007812	-314.5410766601562	-1567.81201171875	1406.448852539062	-255.2170562744141	-1588.57421875	1118.006591796875	-211.5387115478516	-1636.205200195312	1101.204833984375	-248.8989562988281	-1451.046264648438	896.4249267578125	-225.1150665283203	-1509.03369140625	876.1174926757812	-168.8664093017578	-1580.749633789062	1061.585205078125	-202.7927856445312	-1443.10546875	725.2022705078125	-219.7807922363281	-1425.714111328125	806.2880859375	-202.8495025634766	-1490.684326171875	803.0094604492188	-164.3654022216797	-1475.926513671875	1686.532592773438	-392.6032104492188	-1285.788696289062	1697.14794921875	-475.6360168457031	-1344.354858398438	1695.912231445312	-343.9745788574219	-1401.856567382812	1685.76123046875	-540.6527709960938	-1396.964477539062	937.5529174804688	-644.3125	-1539.170654296875	941.1236572265625	-283.492919921875	-1436.279296875	971.20068359375	-309.8379821777344	-1337.512084960938	964.2838745117188	-569.921875	-1396.543334960938	493.3858337402344	-576.36181640625	-1381.553466796875	657.9003295898438	-612.4207153320312	-1491.415161132812	28.20077896118164	-597.4466552734375	-1464.822265625	248.7060699462891	-602.0344848632812	-1310.906616210938	35.98797225952148	-474.6180725097656	-1392.16455078125	38.37632751464844	-463.4329223632812	-1370.333984375	32.61734390258789	-569.2748413085938	-1574.923095703125	26.41923713684082	-568.760498046875	-1488.927490234375	496.9098815917969	-321.2536926269531	-1499.312255859375	786.1441650390625	-272.9391784667969	-1580.94482421875	29.83460807800293	-370.2642211914062	-1489.027221679688	352.725830078125	-335.7771911621094	-1359.184814453125	40.23125076293945	-331.5404968261719	-1402.6142578125	38.55390548706055	-392.1026000976562	-1461.21875	35.99153137207031	-305.1766662597656	-1610.55908203125	18.26715850830078	-442.2471618652344	-1316.246215820312	726.7223510742188	-644.0328979492188	
108	1.07	-1610.361938476562	1015.304077148438	-440.9042053222656	-1560.497314453125	1018.331359863281	-565.277587890625	-1578.552612304688	1108.1435546875	-504.7228088378906	-1356.819702148438	1293.179077148438	-437.1402893066406	-1588.969848632812	1235.104248046875	-508.6404724121094	-1541.674926757812	1507.203002929688	-479.2200622558594	-1372.899047851562	1404.392822265625	-441.4925842285156	-1636.45166015625	1384.304565429688	-418.1453247070312	-1550.213623046875	1456.27783203125	-577.1879272460938	-1433.3310546875	1481.322265625	-627.715576171875	-1421.596923828125	1356.7529296875	-709.1583862304688	-1392.433349609375	1135.045776367188	-726.2628173828125	-1490.285034179688	1125.566040039062	-707.7562255859375	-1322.642700195312	895.6964111328125	-641.4144287109375	-1333.144165039062	870.9755249023438	-724.9662475585938	-1366.708862304688	1048.413696289062	-723.312255859375	-1324.474365234375	811.7639770507812	-714.5549926757812	-1294.586791992188	819.56103515625	-653.1690673828125	-1529.282592773438	1469.73779296875	-314.6038513183594	-1567.445678710938	1406.388916015625	-255.256103515625	-1588.322265625	1117.90625	-211.5654602050781	-1635.935791015625	1101.098876953125	-248.9845275878906	-1450.64013671875	896.4375610351562	-225.3272552490234	-1508.61962890625	876.1052856445312	-168.9957122802734	-1580.512573242188	1061.518310546875	-202.7251892089844	-1442.685913085938	725.2205810546875	-219.9652099609375	-1425.26953125	806.2861328125	-203.0506134033203	-1490.217529296875	802.9947509765625	-164.5575103759766	-1475.4052734375	1686.368530273438	-392.5717468261719	-1285.158325195312	1696.835571289062	-475.6622924804688	-1343.746215820312	1695.608276367188	-344.0321655273438	-1401.349853515625	1685.571899414062	-540.6502075195312	-1396.940551757812	937.5149536132812	-644.36083984375	-1539.314086914062	940.9728393554688	-283.6631164550781	-1436.365966796875	971.060302734375	-310.0915222167969	-1337.392822265625	964.2931518554688	-570.0408935546875	-1395.28662109375	493.550537109375	-575.6437377929688	-1380.9169921875	658.0015258789062	-611.7285766601562	-1491.411499023438	28.22432899475098	-597.443359375	-1464.031616210938	248.7213897705078	-601.5047607421875	-1310.9541015625	36.05471420288086	-474.6296997070312	-1392.126342773438	38.34268569946289	-463.5921020507812	-1370.36767578125	32.65652847290039	-569.23046875	-1574.941650390625	26.41144752502441	-568.7616577148438	-1487.001586914062	496.76953125	-321.1635437011719	-1498.622680664062	786.0977172851562	-273.2353820800781	-1580.987548828125	29.80940437316895	-370.2423095703125	-1487.2568359375	352.4290771484375	-335.696044921875	-1359.293334960938	40.64209747314453	-331.7942810058594	-1402.737548828125	38.59490585327148	-392.3303833007812	-1461.175170898438	36.13901138305664	-305.506103515625	-1610.677734375	18.13953018188477	-442.2279052734375	-1316.3056640625	726.6867065429688	-643.8462524414062	
109	1.08	-1610.48974609375	1015.033447265625	-441.1957092285156	-1560.495849609375	1018.099975585938	-565.5172119140625	-1578.60400390625	1108.103515625	-504.9595642089844	-1356.542236328125	1292.995239257812	-437.2579956054688	-1588.831420898438	1235.052978515625	-508.7824401855469	-1541.234252929688	1507.107299804688	-479.242431640625	-1372.576904296875	1404.18603515625	-441.5780944824219	-1636.081298828125	1384.253051757812	-418.1820373535156	-1549.777465820312	1456.15869140625	-577.2501831054688	-1432.912841796875	1481.182861328125	-627.7698974609375	-1421.3896484375	1356.652221679688	-709.2572631835938	-1392.342041015625	1134.965454101562	-726.410888671875	-1490.247436523438	1125.54638671875	-707.8802490234375	-1322.567993164062	895.5426635742188	-641.5772094726562	-1333.080200195312	870.7594604492188	-725.0972290039062	-1366.639892578125	1048.308349609375	-723.4254150390625	-1324.5068359375	811.5875244140625	-714.5811157226562	-1294.638916015625	819.4278564453125	-653.2157592773438	-1528.886108398438	1469.623779296875	-314.6512145996094	-1567.026733398438	1406.294189453125	-255.2811279296875	-1588.070190429688	1117.783325195312	-211.5805969238281	-1635.66845703125	1100.9794921875	-249.0362091064453	-1450.182495117188	896.433837890625	-225.5770874023438	-1508.164916992188	876.0674438476562	-169.1487731933594	-1580.231323242188	1061.425659179688	-202.6687927246094	-1442.210327148438	725.2218017578125	-220.1788787841797	-1424.7431640625	806.2734375	-203.3088073730469	-1489.692993164062	802.9542236328125	-164.7780151367188	-1474.829467773438	1686.1796875	-392.51904296875	-1284.492309570312	1696.505859375	-475.6696472167969	-1343.084106445312	1695.300415039062	-344.0752563476562	-1400.783447265625	1685.348388671875	-540.6236572265625	-1396.913818359375	937.4150390625	-644.4119262695312	-1539.381591796875	940.7857055664062	-283.8338317871094	-1436.403198242188	970.8919677734375	-310.3768920898438	-1337.280395507812	964.2750854492188	-570.1981811523438	-1393.796875	493.6666870117188	-574.7504272460938	-1380.173950195312	658.0760498046875	-610.9238891601562	-1491.412231445312	28.25561714172363	-597.4254760742188	-1463.074951171875	248.7011108398438	-600.8783569335938	-1311.0087890625	36.13071441650391	-474.6294250488281	-1392.083618164062	38.30694198608398	-463.7610473632812	-1370.404052734375	32.70976257324219	-569.1658325195312	-1574.966674804688	26.40603637695312	-568.7564697265625	-1485.060913085938	496.6235656738281	-321.0412292480469	-1497.852294921875	786.0504760742188	-273.4571533203125	-1581.0205078125	29.78699111938477	-370.209716796875	-1485.491821289062	352.1119995117188	-335.6115417480469	-1359.419189453125	41.16124725341797	-332.0684509277344	-1402.877807617188	38.6566162109375	-392.58203125	-1461.14404296875	36.31062316894531	-305.8600158691406	-1610.7822265625	18.02360153198242	-442.1920166015625	-1316.417724609375	726.6148071289062	-643.678466796875	
